<svg id="Subzonas" xmlns="http://www.w3.org/2000/svg" viewBox="0 0 5323.44 8206.63"><defs><style>.cls-1{fill:none;stroke:#ce2d2f;stroke-miterlimit:10;stroke-width:6px;}</style></defs><g id="Zona_15-2" data-name="Zona 15"><rect id="_15.3" data-name="15.3" class="cls-1" x="3163.81" y="5733.74" width="948.04" height="1194.32"/><rect id="_15.2" data-name="15.2" class="cls-1" x="2194.47" y="5733.74" width="950.49" height="1194.32"/><rect id="_15.1" data-name="15.1" class="cls-1" x="1226.13" y="5733.74" width="948.04" height="1194.32"/></g><g id="Zona_16-2" data-name="Zona 16"><rect id="_16.4" data-name="16.4" class="cls-1" x="3161.31" y="5160.82" width="948.04" height="555.08"/><rect id="_16.3" data-name="16.3" class="cls-1" x="3161.31" y="4103.9" width="947.33" height="1037.62"/><rect id="_16.2" data-name="16.2" class="cls-1" x="1223.63" y="5160.82" width="948.04" height="555.08"/><rect id="_16.1" data-name="16.1" class="cls-1" x="1223.63" y="4103.9" width="947.33" height="1037.62"/></g><g id="Zona_17-2" data-name="Zona 17"><rect id="_17.10" data-name="17.10" class="cls-1" x="3160.6" y="3529.51" width="948.04" height="555.08"/><rect id="_17.9" data-name="17.9" class="cls-1" x="3158.66" y="2470.24" width="950.69" height="1037.62"/><rect id="_17.8" data-name="17.8" class="cls-1" x="2192.37" y="3529.51" width="948.04" height="555.08"/><rect id="_17.7" data-name="17.7" class="cls-1" x="2192.37" y="2472.6" width="947.87" height="1037.62"/><rect id="_17.6" data-name="17.6" class="cls-1" x="1222.92" y="3529.51" width="948.04" height="555.08"/><rect id="_17.5" data-name="17.5" class="cls-1" x="1222.92" y="2472.6" width="947.87" height="1037.62"/><rect id="_17.4" data-name="17.4" class="cls-1" x="3160.43" y="1896.94" width="948.04" height="555.08"/><rect id="_17.3" data-name="17.3" class="cls-1" x="3159.63" y="840.61" width="950.69" height="1037.62"/><rect id="_17.2" data-name="17.2" class="cls-1" x="1222.75" y="1896.94" width="950.69" height="555.08"/><rect id="_17.1" data-name="17.1" class="cls-1" x="1222.75" y="840.03" width="950.69" height="1037.62"/></g><g id="Zona_18-2" data-name="Zona 18"><rect id="_18.1" data-name="18.1" class="cls-1" x="1222.75" y="165.42" width="2887.58" height="655.3"/></g></svg>