<svg id="Subzonas" xmlns="http://www.w3.org/2000/svg" viewBox="0 0 5323.44 8206.63"><defs><style>.cls-1{fill:none;stroke:#ce2d2f;stroke-miterlimit:10;stroke-width:6px;}</style></defs><g id="Zona_15" data-name="Zona 15"><rect id="_15.3" data-name="15.3" class="cls-1" x="3157.27" y="5748.73" width="948.04" height="1194.32"/><rect id="_15.2" data-name="15.2" class="cls-1" x="2187.92" y="5748.73" width="950.49" height="1194.32"/><rect id="_15.1" data-name="15.1" class="cls-1" x="1219.59" y="5748.73" width="948.04" height="1194.32"/></g><g id="Zona_16" data-name="Zona 16"><rect id="_16.6" data-name="16.6" class="cls-1" x="3154.76" y="5175.81" width="948.04" height="555.08"/><rect id="_16.5" data-name="16.5" class="cls-1" x="3154.76" y="4118.89" width="947.33" height="1037.62"/><rect id="_16.4" data-name="16.4" class="cls-1" x="2186.54" y="5175.81" width="948.04" height="555.08"/><rect id="_16.3" data-name="16.3" class="cls-1" x="2186.54" y="4118.89" width="947.33" height="1037.62"/><rect id="_16.2" data-name="16.2" class="cls-1" x="1217.08" y="5175.81" width="948.04" height="555.08"/><rect id="_16.1" data-name="16.1" class="cls-1" x="1217.08" y="4118.89" width="947.33" height="1037.62"/></g><g id="Zona_17" data-name="Zona 17"><rect id="_17.12" data-name="17.12" class="cls-1" x="3154.05" y="3544.51" width="948.04" height="555.08"/><rect id="_17.11" data-name="17.11" class="cls-1" x="3152.11" y="2485.24" width="950.69" height="1037.62"/><rect id="_17.10" data-name="17.10" class="cls-1" x="2185.83" y="3544.51" width="948.04" height="555.08"/><rect id="_17.9" data-name="17.9" class="cls-1" x="2185.83" y="2487.59" width="947.87" height="1037.62"/><rect id="_17.8" data-name="17.8" class="cls-1" x="1216.37" y="3544.51" width="948.04" height="555.08"/><rect id="_17.7" data-name="17.7" class="cls-1" x="1216.37" y="2487.59" width="947.87" height="1037.62"/><rect id="_17.6" data-name="17.6" class="cls-1" x="3153.88" y="1911.94" width="948.04" height="555.08"/><rect id="_17.5" data-name="17.5" class="cls-1" x="3153.09" y="855.6" width="950.69" height="1037.62"/><rect id="_17.4" data-name="17.4" class="cls-1" x="2185.66" y="1911.94" width="948.04" height="555.08"/><rect id="_17.3" data-name="17.3" class="cls-1" x="2185.66" y="855.02" width="948.04" height="1037.62"/><rect id="_17.2" data-name="17.2" class="cls-1" x="1216.2" y="1911.94" width="950.69" height="555.08"/><rect id="_17.1" data-name="17.1" class="cls-1" x="1216.2" y="855.02" width="950.69" height="1037.62"/></g><g id="Zona_18" data-name="Zona 18"><rect id="_18.1" data-name="18.1" class="cls-1" x="1216.2" y="180.41" width="2887.58" height="655.3"/></g></svg>