<svg xmlns="http://www.w3.org/2000/svg" viewBox="0 0 5323.44 8206.63"><defs><style>.cls-1,.cls-2,.cls-3{fill:none;stroke-miterlimit:10;}.cls-1{stroke:#e6007e;}.cls-2{stroke:#cf2d30;}.cls-2,.cls-3{stroke-width:6px;}.cls-3{stroke:#d02d30;}</style></defs><g id="Marco"><rect class="cls-1" x="3.65" width="5319.79" height="8206.63"/></g><g id="Subzonas"><g id="Zona_14" data-name="Zona 14"><rect id="_14.9" data-name="14.9" class="cls-2" x="3124.29" y="4978.51" width="240.96" height="240.96"/><rect id="_14.8" data-name="14.8" class="cls-2" x="2513.12" y="4979.51" width="240.96" height="240.96"/><rect id="_14.7" data-name="14.7" class="cls-2" x="1962.37" y="4985.7" width="240.96" height="240.96"/><rect id="_14.6" data-name="14.6" class="cls-2" x="3123.96" y="4680.08" width="240.96" height="240.96"/><rect id="_14.5" data-name="14.5" class="cls-2" x="2513.12" y="4680.08" width="240.96" height="240.96"/><rect id="_14.4" data-name="14.4" class="cls-2" x="1959.54" y="4689.08" width="240.96" height="240.96"/><rect id="_14.3" data-name="14.3" class="cls-2" x="3123.98" y="4405.48" width="240.96" height="240.96"/><rect id="_14.2" data-name="14.2" class="cls-2" x="2513.12" y="4395.56" width="240.96" height="240.96"/><rect id="_14.1" data-name="14.1" class="cls-2" x="1959.54" y="4405.48" width="240.96" height="240.96"/></g><g id="Zona_13" data-name="Zona 13"><rect id="_13.9" data-name="13.9" class="cls-2" x="1957.52" y="364.12" width="240.96" height="240.96"/><rect id="_13.8" data-name="13.8" class="cls-2" x="2518.61" y="360.19" width="240.96" height="240.96"/><rect id="_13.7" data-name="13.7" class="cls-2" x="3136.73" y="364.12" width="240.96" height="240.96"/><rect id="_13.6" data-name="13.6" class="cls-2" x="1957.52" y="690.77" width="240.96" height="240.96"/><rect id="_13.5" data-name="13.5" class="cls-2" x="2518.61" y="690.77" width="240.96" height="240.96"/><rect id="_13.4" data-name="13.4" class="cls-2" x="3136.73" y="690.77" width="240.96" height="240.96"/><rect id="_13.3" data-name="13.3" class="cls-2" x="1957.52" y="1011.71" width="240.96" height="240.96"/><rect id="_13.2" data-name="13.2" class="cls-2" x="2517.24" y="1011.71" width="240.96" height="240.96"/><rect id="_13.1" data-name="13.1" class="cls-2" x="3136.73" y="1011.71" width="240.96" height="240.96"/></g><g id="Zona_12" data-name="Zona 12"><rect id="_12.8" data-name="12.8" class="cls-2" x="4888.66" y="2112.72" width="240.96" height="240.96"/><rect id="_12.7" data-name="12.7" class="cls-2" x="4888.66" y="2472.8" width="240.96" height="240.96"/><rect id="_12.6" data-name="12.6" class="cls-2" x="4471.64" y="2099.45" width="240.96" height="240.96"/><rect id="_12.5" data-name="12.5" class="cls-2" x="4471.64" y="2359.84" width="240.96" height="240.96"/><rect id="_12.4" data-name="12.4" class="cls-2" x="4471.64" y="2611.39" width="240.96" height="240.96"/><rect id="_12.3" data-name="12.3" class="cls-2" x="3977.87" y="2108.45" width="240.96" height="240.96"/><rect id="_12.2" data-name="12.2" class="cls-2" x="3977.87" y="2357.84" width="240.96" height="240.96"/><rect id="_12.1" data-name="12.1" class="cls-2" x="3979.07" y="2613.06" width="240.96" height="240.96"/></g><g id="Zona_11" data-name="Zona 11"><rect id="_11.8" data-name="11.8" class="cls-2" x="194.67" y="2481.53" width="240.96" height="240.96"/><rect id="_11.7" data-name="11.7" class="cls-2" x="197.3" y="2119.45" width="240.96" height="240.96"/><rect id="_11.6" data-name="11.6" class="cls-2" x="642.74" y="2613.01" width="240.96" height="240.96"/><rect id="_11.5" data-name="11.5" class="cls-2" x="642.74" y="2361.04" width="240.96" height="240.96"/><rect id="_11.4" data-name="11.4" class="cls-2" x="642.74" y="2099.2" width="240.96" height="240.96"/><rect id="_11.3" data-name="11.3" class="cls-2" x="1123.04" y="2614.2" width="240.96" height="240.96"/><rect id="_11.2" data-name="11.2" class="cls-2" x="1121.85" y="2361.04" width="240.96" height="240.96"/><rect id="_11.1" data-name="11.1" class="cls-2" x="1121.85" y="2108.77" width="240.96" height="240.96"/></g><g id="Zona_10" data-name="Zona 10"><rect id="_10.9" data-name="10.9" class="cls-2" x="3123.96" y="2483.4" width="240.96" height="240.96"/><rect id="_10.8" data-name="10.8" class="cls-2" x="2512.56" y="2477.01" width="240.96" height="240.96"/><rect id="_10.7" data-name="10.7" class="cls-2" x="1964.37" y="2481.53" width="240.96" height="240.96"/><rect id="_10.6" data-name="10.6" class="cls-2" x="3123.98" y="2219.68" width="240.96" height="240.96"/><rect id="_10.5" data-name="10.5" class="cls-2" x="2513.12" y="2219.68" width="240.96" height="240.96"/><rect id="_10.4" data-name="10.4" class="cls-2" x="1964.68" y="2221.64" width="240.96" height="240.96"/><rect id="_10.3" data-name="10.3" class="cls-2" x="3119.11" y="1958.14" width="240.96" height="240.96"/><rect id="_10.2" data-name="10.2" class="cls-2" x="2512.56" y="1958.14" width="240.96" height="240.96"/><rect id="_10.1" data-name="10.1" class="cls-2" x="1967.41" y="1958.14" width="240.96" height="240.96"/></g><g id="Zona_9" data-name="Zona 9"><rect id="_9.9" data-name="9.9" class="cls-2" x="4888.66" y="3044.74" width="240.96" height="240.96"/><rect id="_9.8" data-name="9.8" class="cls-2" x="4888.66" y="3308.11" width="240.96" height="240.96"/><rect id="_9.7" data-name="9.7" class="cls-2" x="4887.67" y="3548.05" width="240.96" height="240.96"/><rect id="_9.6" data-name="9.6" class="cls-2" x="4471.64" y="2901.98" width="240.96" height="240.96"/><rect id="_9.5" data-name="9.5" class="cls-2" x="4471.64" y="3237.49" width="240.96" height="240.96"/><rect id="_9.4" data-name="9.4" class="cls-2" x="4468.64" y="3547.94" width="240.96" height="240.96"/><rect id="_9.3" data-name="9.3" class="cls-2" x="3982.07" y="2923.89" width="240.96" height="240.96"/><rect id="_9.2" data-name="9.2" class="cls-2" x="3982.07" y="3212.63" width="240.96" height="240.96"/><rect id="_9.1" data-name="9.1" class="cls-2" x="3982.07" y="3504.1" width="240.96" height="240.96"/></g><g id="Zona_8" data-name="Zona 8"><rect id="_8.9" data-name="8.9" class="cls-2" x="194.67" y="3547.6" width="240.96" height="240.96"/><rect id="_8.8" data-name="8.8" class="cls-2" x="196.67" y="3300.5" width="240.96" height="240.96"/><rect id="_8.7" data-name="8.7" class="cls-2" x="196.67" y="3039.42" width="240.96" height="240.96"/><rect id="_8.6" data-name="8.6" class="cls-2" x="642.74" y="3547.72" width="240.96" height="240.96"/><rect id="_8.5" data-name="8.5" class="cls-2" x="642.74" y="3233.48" width="240.96" height="240.96"/><rect id="_8.4" data-name="8.4" class="cls-2" x="642.74" y="2903.39" width="240.96" height="240.96"/><rect id="_8.3" data-name="8.3" class="cls-2" x="1121.85" y="3511.9" width="240.96" height="240.96"/><rect id="_8.2" data-name="8.2" class="cls-2" x="1121.85" y="3215.11" width="240.96" height="240.96"/><rect id="_8.1" data-name="8.1" class="cls-2" x="1121.85" y="2918.31" width="240.96" height="240.96"/></g><g id="Zona_7" data-name="Zona 7"><rect id="_7.9" data-name="7.9" class="cls-2" x="4886.67" y="3868.23" width="240.96" height="240.96"/><rect id="_7.8" data-name="7.8" class="cls-2" x="4886.67" y="4198.19" width="240.96" height="240.96"/><rect id="_7.7" data-name="7.7" class="cls-2" x="4888.66" y="4656.44" width="240.96" height="240.96"/><rect id="_7.6" data-name="7.6" class="cls-2" x="4467.44" y="3836.66" width="240.96" height="240.96"/><rect id="_7.5" data-name="7.5" class="cls-2" x="4468.64" y="4202.19" width="240.96" height="240.96"/><rect id="_7.4" data-name="7.4" class="cls-2" x="4471.35" y="4638.15" width="240.96" height="240.96"/><rect id="_7.3" data-name="7.3" class="cls-2" x="4081.38" y="3828.43" width="240.96" height="240.96"/><rect id="_7.2" data-name="7.2" class="cls-2" x="4081.38" y="4220.2" width="240.96" height="240.96"/><rect id="_7.1" data-name="7.1" class="cls-2" x="4089.31" y="4642.15" width="240.96" height="240.96"/></g><g id="Zona_6" data-name="Zona 6"><rect id="_6.9" data-name="6.9" class="cls-2" x="197.56" y="4665.42" width="240.96" height="240.96"/><rect id="_6.8" data-name="6.8" class="cls-2" x="197.56" y="4192.97" width="240.96" height="240.96"/><rect id="_6.7" data-name="6.7" class="cls-2" x="197.56" y="3871.66" width="240.96" height="240.96"/><rect id="_6.6" data-name="6.6" class="cls-2" x="642.74" y="4640.57" width="240.96" height="240.96"/><rect id="_6.5" data-name="6.5" class="cls-2" x="642.74" y="4206.44" width="240.96" height="240.96"/><rect id="_6.4" data-name="6.4" class="cls-2" x="642.74" y="3838.86" width="240.96" height="240.96"/><rect id="_6.3" data-name="6.3" class="cls-2" x="1007.27" y="4640.57" width="240.96" height="240.96"/><rect id="_6.2" data-name="6.2" class="cls-2" x="1106.17" y="4214.09" width="240.96" height="240.96"/><rect id="_6.1" data-name="6.1" class="cls-2" x="1143.97" y="3827.9" width="240.96" height="240.96"/></g><g id="Zona_5" data-name="Zona 5"><rect id="_5.9" data-name="5.9" class="cls-2" x="3116.11" y="4057.8" width="240.96" height="240.96"/><rect id="_5.8" data-name="5.8" class="cls-2" x="2513.12" y="4057.8" width="240.96" height="240.96"/><rect id="_5.7" data-name="5.7" class="cls-2" x="1964.37" y="4077.19" width="240.96" height="240.96"/><rect id="_5.6" data-name="5.6" class="cls-2" x="3116.11" y="3415.03" width="240.96" height="240.96"/><rect id="_5.5" data-name="5.5" class="cls-2" x="2513.12" y="3415.03" width="240.96" height="240.96"/><rect id="_5.4" data-name="5.4" class="cls-2" x="1959.54" y="3415.03" width="240.96" height="240.96"/><rect id="_5.3" data-name="5.3" class="cls-2" x="3123.98" y="2747.12" width="240.96" height="240.96"/><rect id="_5.2" data-name="5.2" class="cls-2" x="2510.24" y="2752.87" width="240.96" height="240.96"/><rect id="_5.1" data-name="5.1" class="cls-2" x="1959.54" y="2752.87" width="240.96" height="240.96"/></g><g id="Zona_4" data-name="Zona 4"><rect id="_4.8" data-name="4.8" class="cls-2" x="4886.67" y="5455.38" width="240.96" height="240.96"/><rect id="_4.7" data-name="4.7" class="cls-2" x="4886.67" y="5927.19" width="240.96" height="240.96"/><rect id="_4.6" data-name="4.6" class="cls-2" x="4574.41" y="4972.05" width="240.96" height="240.96"/><rect id="_4.5" data-name="4.5" class="cls-2" x="4597.42" y="5449.38" width="240.96" height="240.96"/><rect id="_4.4" data-name="4.4" class="cls-2" x="4599.41" y="5932.28" width="240.96" height="240.96"/><rect id="_4.3" data-name="4.3" class="cls-2" x="4232.57" y="4978.51" width="240.96" height="240.96"/><rect id="_4.2" data-name="4.2" class="cls-2" x="4312.42" y="5455.38" width="240.96" height="240.96"/><rect id="_4.1" data-name="4.1" class="cls-2" x="4301.34" y="5931.26" width="240.96" height="240.96"/></g><g id="Zona_3" data-name="Zona 3"><rect id="_3.8" data-name="3.8" class="cls-2" x="197.56" y="5927.92" width="240.96" height="240.96"/><rect id="_3.7" data-name="3.7" class="cls-2" x="197.56" y="5452.5" width="240.96" height="240.96"/><rect id="_3.6" data-name="3.6" class="cls-2" x="474.46" y="5928.05" width="240.96" height="240.96"/><rect id="_3.5" data-name="3.5" class="cls-2" x="465.55" y="5452.5" width="240.96" height="240.96"/><rect id="_3.4" data-name="3.4" class="cls-2" x="515.45" y="4974.27" width="240.96" height="240.96"/><rect id="_3.3" data-name="3.3" class="cls-2" x="748.57" y="5927.92" width="240.96" height="240.96"/><rect id="_3.2" data-name="3.2" class="cls-2" x="763.22" y="5452.5" width="240.96" height="240.96"/><rect id="_3.1" data-name="3.1" class="cls-2" x="851.88" y="4974.97" width="240.96" height="240.96"/></g><g id="Zona_2" data-name="Zona 2"><rect id="_2.9" data-name="2.9" class="cls-2" x="3123.96" y="5914.44" width="240.96" height="240.96"/><rect id="_2.8" data-name="2.8" class="cls-2" x="2513.12" y="5916.72" width="240.96" height="240.96"/><rect id="_2.7" data-name="2.7" class="cls-2" x="1959.54" y="5914.44" width="240.96" height="240.96"/><rect id="_2.6" data-name="2.6" class="cls-2" x="3124.29" y="5619.83" width="240.96" height="240.96"/><rect id="_2.5" data-name="2.5" class="cls-2" x="2513.12" y="5619.83" width="240.96" height="240.96"/><rect id="_2.4" data-name="2.4" class="cls-2" x="1959.54" y="5619.83" width="240.96" height="240.96"/><rect id="_2.3" data-name="2.3" class="cls-2" x="3123.96" y="5274.19" width="240.96" height="240.96"/><rect id="_2.2" data-name="2.2" class="cls-2" x="2513.12" y="5319.91" width="240.96" height="240.96"/><rect id="_2.1" data-name="2.1" class="cls-2" x="1962.37" y="5283.74" width="240.96" height="240.96"/></g><g id="Zona_1" data-name="Zona 1"><rect id="_1.9" data-name="1.9" class="cls-2" x="3126.72" y="7674.09" width="240.96" height="240.96"/><rect id="_1.8" data-name="1.8" class="cls-2" x="2508.37" y="7670.73" width="240.96" height="240.96"/><rect id="_1.7" data-name="1.7" class="cls-2" x="1954.53" y="7672.73" width="240.96" height="240.96"/><rect id="_1.6" data-name="1.6" class="cls-3" x="3126.86" y="7407.5" width="240.96" height="240.96"/><rect id="_1.5" data-name="1.5" class="cls-3" x="2508.37" y="7407.75" width="240.96" height="240.96"/><rect id="_1.4" data-name="1.4" class="cls-3" x="1950.84" y="7406.61" width="240.96" height="240.96"/><rect id="_1.3" data-name="1.3" class="cls-3" x="3126.86" y="7139.2" width="240.96" height="240.96"/><rect id="_1.2" data-name="1.2" class="cls-3" x="2508.37" y="7138.01" width="240.96" height="240.96"/><rect id="_1.1" data-name="1.1" class="cls-3" x="1949.39" y="7139.63" width="240.96" height="240.96"/></g></g></svg>